<?xml version="1.0" encoding="UTF-8"?>
<svg id="a" data-name="layer" xmlns="http://www.w3.org/2000/svg" viewBox="0 0 399.76 446">
  <defs>
    <style>
      .b {
        stroke: black;
        stroke-miterlimit: 10;
        fill: black;

      }

      .c {
        stroke-width: 0px;
        fill: black;
        stroke: black;
      }
    </style>
  </defs>
  <path class="c" d="m399.01,243.5c-2.68-13.63-6.18-26.93-11.27-39.78-7.79-19.76-19.25-38.48-34.03-53.71-41.27-43.26-106.57-56.97-162.93-42.51-43.76,11.15-81.77,38.75-94.58,81.75-.33,1.17-1.01,3.53-1.35,4.7-.47,1.59-1.22,5.51-1.66,7.17-.47,2.81-1.29,6.93-1.56,9.74-1.61,11.74-1.86,23.88-1.56,35.71.65,10.39,1.97,20.66,4.05,30.9,8.3,42.98,35.15,83.82,72.34,110.76,7.11,5.33,15.19,10.34,22.93,14.73,10.61,5.92,20.92,10.44,32.63,15.34-43.95,19.55-99.53,8.3-139.61-18.23C38.11,370.99,6.79,322.03,1.02,269.09c-1.49-13.5-1.38-27.28.5-40.72,2.01-15.52,5.9-31.07,11.46-45.71,22.86-61.18,75.22-110.05,138.43-126.49,74.53-20.6,160.47,1.43,210.06,61.41,29.27,35.37,41.56,80.52,37.52,125.93h0Z"/>
  <circle class="b" cx="177.51" cy="140" r="12.5"/>
  <circle class="b" cx="256.01" cy="20.5" r="20"/>
  <circle class="b" cx="138.51" cy="274" r="27.5"/>
  <circle class="b" cx="70.51" cy="428" r="17.5"/>
</svg>