<?xml version="1.0" encoding="UTF-8"?>
<svg id="b" data-name="Слой 2" xmlns="http://www.w3.org/2000/svg" viewBox="0 0 478 211.07">
  <defs>
    <style>
      .d {
        fill: none;
        stroke: #fff;
        stroke-miterlimit: 10;
        stroke-width: 28px;
      }
    </style>
  </defs>
  <g id="c" data-name="Слой 1">
    <path class="d" d="m464,105.54c0,51.63-59.04,89.07-105.7,91.42-20.58,1.03-37.51-4.82-48.32-9.79-14.21-6.85-40.94-17.3-75.5-16.32-29.73.84-52.86,9.77-66.44,16.32-10.82,4.98-27.75,10.83-48.32,9.79-46.66-2.35-105.7-39.79-105.7-91.42S73.04,16.47,119.7,14.12c20.58-1.03,37.51,4.82,48.32,9.79,11.58,6.84,36.85,19.59,70.97,19.59s59.39-12.75,70.97-19.59c10.82-4.98,27.75-10.83,48.32-9.79,46.66,2.35,105.7,39.79,105.7,91.42Z"/>
  </g>
</svg>