<?xml version="1.0" encoding="UTF-8"?>
<svg id="a" data-name="Слой 1" xmlns="http://www.w3.org/2000/svg" viewBox="0 0 100 38.47">
  <defs>
    <style>
      .b {
        fill: none;
      }

      .b, .c, .d, .e, .f {
        stroke-width: 0px;
      }

      .c {
        fill: #0f9fd0;
      }

      .d {
        fill: #fff;
      }

      .e {
        fill: #cecdca;
      }

      .f {
        fill: #d92029;
      }
    </style>
  </defs>
  <path class="d" d="m17.95,5.26c0,.23-.05.41-.14.59-.09.18-.18.27-.32.41-.14.09-.27.18-.41.27-.14.05-.32.09-.5.09v.41h-.77v-.41c-.23-.05-.45-.09-.63-.18-.18-.09-.32-.18-.41-.32-.09-.14-.18-.27-.23-.45-.04-.18-.09-.36-.09-.59v-1.68c0-.23.05-.41.14-.59.05-.14.18-.27.27-.36.14-.14.27-.18.45-.27.18-.09.32-.09.5-.09v-.27h.82v.27c.18,0,.32.05.5.09.14.05.27.14.41.27.14.09.23.27.32.41.09.18.14.36.14.59v1.81h-.04Zm-2.13-2.54c-.18.05-.32.09-.45.18-.09.14-.14.27-.14.45v2c0,.09,0,.18.05.27.05.09.09.14.14.18s.14.09.18.14c.09.05.14.05.23.05v-3.27Zm1.41.64c0-.18-.05-.32-.18-.45-.09-.09-.23-.14-.41-.18v3.22s.14-.05.18-.05c.09-.05.14-.09.18-.14.05-.05.09-.09.14-.18.04-.09.04-.14.04-.23v-2h.05Z"/>
  <path class="d" d="m21.99,5.66c0,.45-.09.82-.32,1.04-.23.23-.54.36-.95.36-.45,0-.77-.09-.95-.32-.18-.23-.32-.54-.32-.95v-2.63c0-.18.05-.41.09-.54.05-.18.14-.32.23-.45.09-.14.23-.23.41-.27.18-.05.36-.09.59-.09s.45.05.59.09c.14,0,.27.09.36.23s.18.27.23.45.05.36.05.59v2.5Zm-.82-2.59c0-.14-.05-.27-.09-.41-.05-.14-.18-.18-.36-.18-.09,0-.18,0-.23.05-.09.09-.14.14-.14.23-.04.05-.04.14-.04.23v2.86c0,.14.04.27.09.36.04.09.18.18.36.18s.27-.05.36-.18c.09-.09.09-.23.09-.41v-2.72h-.05Z"/>
  <polygon class="d" points="25.25 7.03 25.25 4.76 24.3 4.76 24.3 7.03 23.53 7.03 23.53 1.81 24.35 1.81 24.35 3.99 25.3 3.99 25.3 1.81 26.12 1.81 26.12 7.03 25.25 7.03"/>
  <path class="d" d="m28.02,7.03v1h-.68v-1.68l.32-.05c.14-.14.23-.32.27-.5.05-.18.09-.45.09-.77l.09-3.18h2.36v4.49h.32v1.72h-.68v-1h-2.09v-.05Zm.73-2.04c0,.32-.05.54-.05.77-.05.23-.09.41-.18.54h1.13v-3.72h-.82l-.09,2.4Z"/>
  <path class="d" d="m35.69,1.76c.23,0,.41.05.54.09.14.05.27.14.41.23.09.09.18.23.23.36.04.14.09.32.09.5l-.77.18c0-.18-.05-.36-.09-.45-.09-.14-.18-.18-.36-.18-.09,0-.18,0-.23.05-.05.05-.09.09-.14.14s-.05.14-.05.18v3.04s.05.14.05.18l.14.14s.14.05.23.05c.32,0,.45-.23.45-.64.14.05.27.05.41.05s.27.05.41.05c0,.41-.14.73-.32.95-.23.23-.5.36-.91.36-.45,0-.77-.09-.95-.32-.23-.23-.32-.54-.32-.95v-2.59c0-.18,0-.36.05-.54.05-.18.14-.32.23-.45.09-.14.23-.23.41-.32.05-.05.23-.09.5-.09"/>
  <path class="d" d="m40.77,5.66c0,.45-.09.82-.32,1.04-.23.23-.54.36-.95.36-.45,0-.77-.09-.95-.32-.18-.23-.32-.54-.32-.95v-2.63c0-.18.05-.41.09-.54.05-.18.14-.32.23-.45.09-.14.23-.23.41-.27.18-.05.36-.09.59-.09s.45.05.59.09c.18.05.27.14.41.27.09.14.18.27.23.45v3.04Zm-.82-2.59c0-.14-.05-.27-.09-.41-.05-.14-.18-.18-.36-.18-.09,0-.18,0-.23.05l-.14.14s-.04.14-.09.23v2.86c0,.14.05.27.09.36.09.09.18.18.36.18s.27-.05.36-.18c.09-.09.09-.23.09-.41v-2.63Z"/>
  <path class="d" d="m42.68,7.03v1h-.68v-1.68l.32-.05c.14-.14.23-.32.27-.5.05-.18.09-.45.09-.77l.09-3.18h2.36v4.49h.32v1.72h-.68v-1h-2.09v-.05Zm.73-2.04c0,.32-.05.54-.05.77-.05.23-.09.41-.18.54h1.13v-3.72h-.82l-.09,2.4Z"/>
  <polygon class="d" points="46.76 7.03 46.76 1.81 49.07 1.81 49.07 2.58 47.58 2.58 47.58 3.99 48.89 3.99 48.89 4.76 47.58 4.76 47.58 6.25 49.07 6.25 49.07 7.03 46.76 7.03"/>
  <path class="d" d="m52.3,3.76l-1.09,3.27h-.77V1.81h.77v3.31l1.09-3.31h.77v5.22h-.82l.04-3.27Zm-1-3.13s0,.09.05.18c.05.05.05.09.09.18.04.05.09.09.14.14s.14.05.18.05c.09,0,.14,0,.18-.05.05-.05.09-.09.14-.14.05-.05.09-.09.09-.18,0-.05.05-.09.05-.18h.59c0,.09-.05.23-.09.36.04.09-.05.23-.14.32-.09.09-.18.18-.32.27-.14.05-.27.09-.45.09s-.36-.05-.5-.09-.23-.14-.32-.27c-.09-.09-.14-.23-.18-.32-.05-.14-.09-.27-.09-.36h.59Z"/>
  <path class="d" d="m55.88,1.76c.23,0,.41.05.54.09.14.05.27.14.41.23.09.09.18.23.23.36.04.14.09.32.09.5l-.77.18c0-.18-.05-.36-.09-.45-.09-.14-.18-.18-.36-.18-.09,0-.18,0-.23.05-.05.05-.09.09-.14.14-.05.05-.05.14-.05.18v3.04s.05.14.05.18c.04.05.09.09.14.14s.14.05.23.05c.32,0,.45-.23.45-.64.14.05.27.05.41.05s.27.05.41.05c0,.41-.14.73-.32.95-.23.23-.5.36-.91.36-.45,0-.77-.09-.95-.32-.23-.23-.32-.54-.32-.95v-2.59c0-.18,0-.36.05-.54.05-.18.14-.32.23-.45.09-.14.23-.23.41-.32.05-.05.27-.09.5-.09"/>
  <polygon class="d" points="59.78 2.58 59.78 7.03 58.96 7.03 58.96 2.58 58.1 2.58 58.1 1.81 60.6 1.81 60.6 2.58 59.78 2.58"/>
  <path class="d" d="m63.77,4.3c.23.09.41.23.45.41.09.23.14.45.14.73,0,.54-.14.95-.36,1.18-.23.27-.59.36-1.09.36h-1.09V1.81h1.13c.45,0,.82.14,1,.36.23.23.32.59.32,1.04,0,.23-.05.45-.14.63,0,.18-.18.32-.36.45m-.23-1.04c0-.23-.05-.41-.14-.5-.09-.09-.27-.14-.45-.14h-.27v1.36h.27c.23,0,.36-.05.45-.18.09-.18.14-.36.14-.54m.05,2.09c0-.23-.05-.41-.14-.54-.09-.14-.23-.18-.45-.18h-.32v1.63h.32c.14,0,.23-.05.32-.09.09-.05.14-.09.18-.18.05-.09.09-.18.09-.27v-.36Z"/>
  <polygon class="d" points="67.77 3.76 66.68 7.03 65.91 7.03 65.91 1.81 66.68 1.81 66.68 5.12 66.72 5.12 67.81 1.81 68.58 1.81 68.58 7.03 67.77 7.03 67.77 3.76"/>
  <path class="d" d="m69.94,7.03l.27-1.63c.04-.18.09-.32.18-.45.09-.14.18-.27.32-.32-.23-.09-.41-.27-.5-.45-.09-.18-.14-.45-.14-.73,0-.5.14-.91.36-1.18.23-.27.59-.41,1.04-.41h1.18v5.22h-.82v-2.27h-.23c-.14,0-.27.05-.41.18-.14.09-.18.32-.27.59l-.23,1.45h-.77Zm1.59-4.45c-.23,0-.41.09-.5.23-.09.14-.14.32-.14.59s.04.41.18.54c.14.09.27.14.45.14h.32v-1.5h-.32Z"/>
  <polygon class="d" points="16.91 11.34 15.55 15.37 14.59 15.37 14.59 8.93 15.59 8.93 15.59 13.01 15.64 13.01 17 8.93 17.99 8.93 17.99 15.37 16.95 15.37 16.91 11.34"/>
  <polygon class="d" points="22.85 15.37 22.85 12.56 21.72 12.56 21.72 15.37 20.72 15.37 20.72 8.93 21.72 8.93 21.72 11.61 22.9 11.61 22.9 8.93 23.89 8.93 23.89 15.37 22.85 15.37"/>
  <polygon class="d" points="28.84 15.37 28.84 12.56 27.66 12.56 27.66 15.37 26.66 15.37 26.66 8.93 27.66 8.93 27.66 11.61 28.84 11.61 28.84 8.93 29.84 8.93 29.84 15.37 28.84 15.37"/>
  <path class="d" d="m35.73,13.74c0,.54-.14,1-.36,1.27-.27.27-.63.41-1.22.41-.54,0-.95-.14-1.18-.41-.23-.27-.36-.68-.36-1.18v-3.22c0-.27.04-.5.09-.68.04-.23.14-.41.27-.54.14-.14.27-.27.5-.36.18-.09.45-.14.73-.14.32,0,.54.05.77.14.18.09.36.18.5.32.14.14.23.32.27.54.05.23.09.45.09.73v3.13h-.09Zm-1-3.22c0-.18-.05-.32-.14-.5-.09-.14-.23-.23-.45-.23-.14,0-.23.05-.27.09-.09.05-.14.14-.18.18-.04.09-.09.18-.09.27s-.05.18-.05.27v3.27c0,.18.05.32.14.45s.23.18.45.18.36-.09.45-.23c.09-.14.14-.32.14-.5v-3.27Z"/>
  <path class="d" d="m40.86,12.02c.27.09.5.27.59.54.09.27.18.54.18.91,0,.68-.14,1.18-.45,1.5-.27.32-.73.45-1.32.45h-1.36v-6.49h1.41c.59,0,1,.14,1.23.45.27.32.41.73.41,1.32,0,.32-.05.54-.14.77-.09.23-.27.41-.54.5v.05Zm-.27-1.32c0-.32-.04-.5-.18-.64-.14-.14-.32-.18-.59-.18h-.32v1.63h.32c.27,0,.45-.09.59-.23.14-.09.18-.32.18-.59m.05,2.63c0-.32-.05-.54-.18-.68-.09-.14-.32-.23-.59-.23h-.36v2h.41c.18,0,.27-.05.41-.09.09-.05.18-.14.23-.23.04-.09.09-.23.09-.36v-.41Z"/>
  <path class="d" d="m46.71,15.37l-.27-1.36h-1.18c-.05.23-.09.45-.14.68-.05.23-.09.45-.14.68h-1.04c.23-1.09.45-2.18.64-3.22.23-1.09.45-2.13.64-3.22h1.13l1.32,6.44h-.95Zm-.91-4.95c-.05.45-.14.91-.18,1.32-.09.45-.14.91-.23,1.36h.91l-.41-2.68h-.09Z"/>
  <polygon class="d" points="53.29 8.93 53.29 14.47 53.7 14.47 53.7 16.64 52.84 16.64 52.84 15.42 50.12 15.42 50.12 8.93 51.12 8.93 51.12 14.47 52.25 14.47 52.25 8.93 53.29 8.93"/>
  <polygon class="d" points="58.42 11.34 57.06 15.37 56.11 15.37 56.11 8.93 57.1 8.93 57.1 13.01 58.47 8.93 59.46 8.93 59.46 15.37 58.47 15.37 58.42 11.34"/>
  <path class="d" d="m61.96,15.37l.36-2.04c.05-.23.09-.41.23-.59.09-.18.23-.32.41-.41-.32-.14-.5-.32-.64-.54-.09-.27-.18-.54-.18-.91,0-.64.14-1.13.45-1.45.32-.32.73-.5,1.27-.5h1.5v6.44h-1v-2.77h-.27c-.18,0-.32.05-.5.18-.14.14-.27.36-.32.73l-.32,1.81h-1v.05Zm2-5.49c-.32,0-.5.09-.63.27-.14.18-.18.41-.18.73s.09.54.23.64c.14.14.36.18.59.18h.41v-1.81h-.41Z"/>
  <polygon class="d" points="70.04 13.97 69.58 12.79 69.17 11.65 69.13 11.65 69.13 15.37 68.13 15.37 68.13 8.93 69.13 8.93 69.85 10.75 70.35 12.15 70.4 12.15 70.94 10.7 71.62 8.89 72.58 8.89 72.58 15.33 71.58 15.33 71.58 11.61 71.53 11.61 71.12 12.74 70.67 13.92 70.04 13.92 70.04 13.97"/>
  <path class="f" d="m72.62,17.32h0c-14.02,13.7-42.06,11.34-52.22,0h-5.81c7.67,8.12,18.69,11.21,27.95,11.62.95.05,1.91.05,2.81.05,5.99-.09,12.66-1.41,18.47-4.49,3.31-1.72,6.35-4.08,8.8-7.17"/>
  <path class="c" d="m72.62,17.32s0,.05,0,0c-.23.18-.45.32-.63.45-15.29,10.21-36.52,8.21-45.64-.45h-5.94c10.16,11.34,38.2,13.75,52.22,0"/>
  <path class="d" d="m69.26,18.78c-6.94,2.68-13.48,3.86-19.19,3.9-7.99.05-14.29-2.09-17.65-5.35h-6.08c9.07,8.58,30.08,10.62,45.33.64.09-.05.23-.14.32-.23.23-.14.41-.27.64-.41-1.13.54-2.27,1-3.36,1.45"/>
  <path class="e" d="m32.42,17.32c3.31,3.18,9.48,5.31,17.33,5.31h.32c5.72-.05,12.25-1.22,19.19-3.9,1.09-.45,2.22-.91,3.36-1.41-2.45,3.04-5.49,5.4-8.85,7.17-5.81,3.09-12.48,4.4-18.47,4.49h-.68c-.68,0-1.41,0-2.13-.05-9.26-.41-20.24-3.49-27.95-11.62h17.88m40.2,0h0m-40.2-.05H14.59s-.05,0-.09.05v.09c3.63,3.77,8.12,6.71,13.43,8.71,4.45,1.68,9.53,2.68,14.56,2.9.73.05,1.41.05,2.13.05h.68c3.18-.05,6.31-.41,9.3-1.13,3.31-.77,6.4-1.91,9.16-3.36,3.54-1.91,6.53-4.31,8.85-7.21v-.14h-.09c-1.09.5-2.22,1-3.36,1.41-6.44,2.5-13.07,3.86-19.15,3.9h-.32c-7.49,0-13.75-1.95-17.24-5.31t-.05.05"/>
  <polygon class="b" points="4.66 38.47 100 28.88 100 0 0 0 4.66 38.47"/>
</svg>