<?xml version="1.0" encoding="UTF-8"?>
<svg id="a" data-name="Слой 1" xmlns="http://www.w3.org/2000/svg" viewBox="0 0 100 38.47">
  <defs>
    <style>
      .b {
        fill: #1d3c5a;
      }

      .b, .c, .d, .e, .f {
        stroke-width: 0px;
      }

      .c {
        fill: #0f9fd0;
      }

      .d {
        fill: #fff;
      }

      .e {
        fill: #cecdca;
      }

      .f {
        fill: #d92029;
      }
    </style>
  </defs>
  <path class="b" d="m17.54,4.89c0,.23-.05.41-.14.59-.09.18-.18.27-.32.41-.14.09-.28.18-.41.27-.14.05-.32.09-.51.09v.41h-.78v-.41c-.23-.05-.46-.09-.64-.18-.18-.09-.32-.18-.41-.32-.09-.14-.18-.27-.23-.46-.05-.18-.09-.36-.09-.59v-1.69c0-.23.05-.41.14-.59.05-.14.18-.27.28-.36.14-.14.28-.18.46-.27.18-.09.32-.09.51-.09v-.27h.83v.27c.18,0,.32.05.51.09.14.05.28.14.41.27.14.09.23.27.32.41.09.18.14.36.14.59v1.82h-.05Zm-2.16-2.55c-.18.05-.32.09-.46.18-.09.14-.14.27-.14.46v2.01c0,.09,0,.18.05.27.05.09.09.14.14.18s.14.09.18.14c.09.05.14.05.23.05v-3.28Zm1.43.64c0-.18-.05-.32-.18-.46-.09-.09-.23-.14-.41-.18v3.24s.14-.05.18-.05c.09-.05.14-.09.18-.14.05-.05.09-.09.14-.18.05-.09.05-.14.05-.23v-2.01h.05Z"/>
  <path class="b" d="m21.63,5.3c0,.46-.09.82-.32,1.05-.23.23-.55.36-.97.36-.46,0-.78-.09-.97-.32-.18-.23-.32-.55-.32-.96v-2.64c0-.18.05-.41.09-.55.05-.18.14-.32.23-.46.09-.14.23-.23.41-.27.18-.05.37-.09.6-.09s.46.05.6.09c.14,0,.28.09.37.23s.18.27.23.46.05.36.05.59v2.51Zm-.83-2.6c0-.14-.05-.27-.09-.41-.05-.14-.18-.18-.37-.18-.09,0-.18,0-.23.05-.09.09-.14.14-.14.23-.05.05-.05.14-.05.23v2.87c0,.14.05.27.09.36.05.09.18.18.37.18s.28-.05.37-.18c.09-.09.09-.23.09-.41v-2.74h-.05Z"/>
  <polygon class="b" points="24.94 6.66 24.94 4.39 23.98 4.39 23.98 6.66 23.2 6.66 23.2 1.42 24.03 1.42 24.03 3.61 24.99 3.61 24.99 1.42 25.82 1.42 25.82 6.66 24.94 6.66"/>
  <path class="b" d="m27.75,6.66v1h-.69v-1.69l.32-.05c.14-.14.23-.32.28-.5.05-.18.09-.46.09-.78l.09-3.19h2.39v4.51h.32v1.73h-.69v-1h-2.12v-.05Zm.74-2.05c0,.32-.05.55-.05.78-.05.23-.09.41-.18.55h1.15v-3.74h-.83l-.09,2.42Z"/>
  <path class="b" d="m35.52,1.38c.23,0,.41.05.55.09.14.05.28.14.41.23.09.09.18.23.23.36.05.14.09.32.09.5l-.78.18c0-.18-.05-.36-.09-.46-.09-.14-.18-.18-.37-.18-.09,0-.18,0-.23.05-.05.05-.09.09-.14.14s-.05.14-.05.18v3.05s.05.14.05.18l.14.14s.14.05.23.05c.32,0,.46-.23.46-.64.14.05.28.05.41.05s.28.05.41.05c0,.41-.14.73-.32.96-.23.23-.51.36-.92.36-.46,0-.78-.09-.97-.32-.23-.23-.32-.55-.32-.96v-2.6c0-.18,0-.36.05-.55.05-.18.14-.32.23-.46.09-.14.23-.23.41-.32.05-.05.23-.09.51-.09"/>
  <path class="b" d="m40.67,5.3c0,.46-.09.82-.32,1.05-.23.23-.55.36-.97.36-.46,0-.78-.09-.97-.32-.18-.23-.32-.55-.32-.96v-2.64c0-.18.05-.41.09-.55.05-.18.14-.32.23-.46.09-.14.23-.23.41-.27.18-.05.37-.09.6-.09s.46.05.6.09c.18.05.28.14.41.27.09.14.18.27.23.46v3.05Zm-.83-2.6c0-.14-.05-.27-.09-.41-.05-.14-.18-.18-.37-.18-.09,0-.18,0-.23.05l-.14.14s-.05.14-.09.23v2.87c0,.14.05.27.09.36.09.09.18.18.37.18s.28-.05.37-.18c.09-.09.09-.23.09-.41v-2.64Z"/>
  <path class="b" d="m42.6,6.66v1h-.69v-1.69l.32-.05c.14-.14.23-.32.28-.5.05-.18.09-.46.09-.78l.09-3.19h2.39v4.51h.32v1.73h-.69v-1h-2.12v-.05Zm.74-2.05c0,.32-.05.55-.05.78-.05.23-.09.41-.18.55h1.15v-3.74h-.83l-.09,2.42Z"/>
  <polygon class="b" points="46.74 6.66 46.74 1.42 49.09 1.42 49.09 2.2 47.57 2.2 47.57 3.61 48.9 3.61 48.9 4.39 47.57 4.39 47.57 5.89 49.09 5.89 49.09 6.66 46.74 6.66"/>
  <path class="b" d="m52.35,3.38l-1.1,3.28h-.78V1.42h.78v3.33l1.1-3.33h.78v5.24h-.83l.05-3.28Zm-1.01-3.15s0,.09.05.18c.05.05.05.09.09.18.05.05.09.09.14.14s.14.05.18.05c.09,0,.14,0,.18-.05.05-.05.09-.09.14-.14.05-.05.09-.09.09-.18,0-.05.05-.09.05-.18h.6c0,.09-.05.23-.09.36.05.09-.05.23-.14.32-.09.09-.18.18-.32.27-.14.05-.28.09-.46.09s-.37-.05-.51-.09-.23-.14-.32-.27c-.09-.09-.14-.23-.18-.32-.05-.14-.09-.27-.09-.36h.6Z"/>
  <path class="b" d="m55.99,1.38c.23,0,.41.05.55.09.14.05.28.14.41.23.09.09.18.23.23.36.05.14.09.32.09.5l-.78.18c0-.18-.05-.36-.09-.46-.09-.14-.18-.18-.37-.18-.09,0-.18,0-.23.05-.05.05-.09.09-.14.14-.05.05-.05.14-.05.18v3.05s.05.14.05.18c.05.05.09.09.14.14s.14.05.23.05c.32,0,.46-.23.46-.64.14.05.28.05.41.05s.28.05.41.05c0,.41-.14.73-.32.96-.23.23-.51.36-.92.36-.46,0-.78-.09-.97-.32-.23-.23-.32-.55-.32-.96v-2.6c0-.18,0-.36.05-.55.05-.18.14-.32.23-.46.09-.14.23-.23.41-.32.05-.05.28-.09.51-.09"/>
  <polygon class="b" points="59.94 2.2 59.94 6.66 59.11 6.66 59.11 2.2 58.24 2.2 58.24 1.42 60.77 1.42 60.77 2.2 59.94 2.2"/>
  <path class="b" d="m63.99,3.93c.23.09.41.23.46.41.09.23.14.46.14.73,0,.55-.14.96-.37,1.19-.23.27-.6.36-1.1.36h-1.1V1.42h1.15c.46,0,.83.14,1.01.36.23.23.32.59.32,1.05,0,.23-.05.46-.14.64,0,.18-.18.32-.37.46m-.23-1.05c0-.23-.05-.41-.14-.5-.09-.09-.28-.14-.46-.14h-.28v1.37h.28c.23,0,.37-.05.46-.18.09-.18.14-.36.14-.55m.05,2.1c0-.23-.05-.41-.14-.55-.09-.14-.23-.18-.46-.18h-.32v1.64h.32c.14,0,.23-.05.32-.09.09-.05.14-.09.18-.18.05-.09.09-.18.09-.27v-.36Z"/>
  <polygon class="b" points="68.03 3.38 66.93 6.66 66.15 6.66 66.15 1.42 66.93 1.42 66.93 4.75 66.98 4.75 68.08 1.42 68.86 1.42 68.86 6.66 68.03 6.66 68.03 3.38"/>
  <path class="b" d="m70.24,6.66l.28-1.64c.05-.18.09-.32.18-.46.09-.14.18-.27.32-.32-.23-.09-.41-.27-.51-.46-.09-.18-.14-.46-.14-.73,0-.5.14-.91.37-1.19.23-.27.6-.41,1.06-.41h1.2v5.24h-.83v-2.28h-.23c-.14,0-.28.05-.41.18-.14.09-.18.32-.28.59l-.23,1.46h-.78Zm1.61-4.47c-.23,0-.41.09-.51.23-.09.14-.14.32-.14.59s.05.41.18.55c.14.09.28.14.46.14h.32v-1.5h-.32Z"/>
  <polygon class="b" points="16.48 11 15.1 15.05 14.14 15.05 14.14 8.58 15.15 8.58 15.15 12.68 15.2 12.68 16.58 8.58 17.59 8.58 17.59 15.05 16.53 15.05 16.48 11"/>
  <polygon class="b" points="22.51 15.05 22.51 12.23 21.36 12.23 21.36 15.05 20.35 15.05 20.35 8.58 21.36 8.58 21.36 11.27 22.55 11.27 22.55 8.58 23.57 8.58 23.57 15.05 22.51 15.05"/>
  <polygon class="b" points="28.58 15.05 28.58 12.23 27.38 12.23 27.38 15.05 26.37 15.05 26.37 8.58 27.38 8.58 27.38 11.27 28.58 11.27 28.58 8.58 29.59 8.58 29.59 15.05 28.58 15.05"/>
  <path class="b" d="m35.57,13.41c0,.55-.14,1-.37,1.28-.28.27-.64.41-1.24.41-.55,0-.97-.14-1.2-.41-.23-.27-.37-.68-.37-1.19v-3.24c0-.27.05-.5.09-.68.05-.23.14-.41.28-.55.14-.14.28-.27.51-.36.18-.09.46-.14.74-.14.32,0,.55.05.78.14.18.09.37.18.51.32.14.14.23.32.28.55.05.23.09.46.09.73v3.15h-.09Zm-1.01-3.24c0-.18-.05-.32-.14-.5-.09-.14-.23-.23-.46-.23-.14,0-.23.05-.28.09-.09.05-.14.14-.18.18-.05.09-.09.18-.09.27s-.05.18-.05.27v3.28c0,.18.05.32.14.46s.23.18.46.18.37-.09.46-.23c.09-.14.14-.32.14-.5v-3.28Z"/>
  <path class="b" d="m40.76,11.68c.28.09.51.27.6.55.09.27.18.55.18.91,0,.68-.14,1.19-.46,1.5-.28.32-.74.46-1.33.46h-1.38v-6.52h1.43c.6,0,1.01.14,1.24.46.28.32.41.73.41,1.32,0,.32-.05.55-.14.78-.09.23-.28.41-.55.5v.05Zm-.28-1.32c0-.32-.05-.5-.18-.64-.14-.14-.32-.18-.6-.18h-.32v1.64h.32c.28,0,.46-.09.6-.23.14-.09.18-.32.18-.59m.05,2.64c0-.32-.05-.55-.18-.68-.09-.14-.32-.23-.6-.23h-.37v2.01h.41c.18,0,.28-.05.41-.09.09-.05.18-.14.23-.23.05-.09.09-.23.09-.36v-.41Z"/>
  <path class="b" d="m46.7,15.05l-.28-1.37h-1.2c-.05.23-.09.46-.14.68-.05.23-.09.46-.14.68h-1.06c.23-1.09.46-2.19.64-3.24.23-1.09.46-2.14.64-3.24h1.15l1.33,6.47h-.97Zm-.92-4.97c-.05.46-.14.91-.18,1.32-.09.46-.14.91-.23,1.37h.92l-.41-2.69h-.09Z"/>
  <polygon class="b" points="53.36 8.58 53.36 14.14 53.78 14.14 53.78 16.33 52.9 16.33 52.9 15.1 50.15 15.1 50.15 8.58 51.16 8.58 51.16 14.14 52.31 14.14 52.31 8.58 53.36 8.58"/>
  <polygon class="b" points="58.56 11 57.18 15.05 56.22 15.05 56.22 8.58 57.23 8.58 57.23 12.68 58.61 8.58 59.62 8.58 59.62 15.05 58.61 15.05 58.56 11"/>
  <path class="b" d="m62.15,15.05l.37-2.05c.05-.23.09-.41.23-.59.09-.18.23-.32.41-.41-.32-.14-.51-.32-.64-.55-.09-.27-.18-.55-.18-.91,0-.64.14-1.14.46-1.46.32-.32.74-.5,1.29-.5h1.52v6.47h-1.01v-2.78h-.28c-.18,0-.32.05-.51.18-.14.14-.28.36-.32.73l-.32,1.82h-1.01v.05Zm2.02-5.52c-.32,0-.51.09-.64.27-.14.18-.18.41-.18.73s.09.55.23.64c.14.14.37.18.6.18h.41v-1.82h-.41Z"/>
  <polygon class="b" points="70.33 13.64 69.87 12.45 69.46 11.32 69.41 11.32 69.41 15.05 68.4 15.05 68.4 8.58 69.41 8.58 70.15 10.4 70.65 11.82 70.7 11.82 71.25 10.36 71.94 8.53 72.91 8.53 72.91 15.01 71.9 15.01 71.9 11.27 71.85 11.27 71.44 12.41 70.98 13.59 70.33 13.59 70.33 13.64"/>
  <path class="f" d="m72.95,17.01h0c-14.21,13.77-42.63,11.4-52.93,0h-5.89c7.77,8.16,18.95,11.26,28.33,11.67.97.05,1.93.05,2.85.05,6.07-.09,12.83-1.41,18.72-4.51,3.36-1.73,6.44-4.1,8.92-7.2"/>
  <path class="c" d="m72.95,17.01s0,.05,0,0c-.23.18-.46.32-.64.46-15.5,10.26-37.02,8.25-46.26-.46h-6.02c10.3,11.4,38.72,13.81,52.93,0"/>
  <path class="d" d="m69.55,18.47c-7.04,2.69-13.66,3.88-19.45,3.92-8.09.05-14.49-2.1-17.89-5.38h-6.16c9.2,8.62,30.49,10.67,45.94.64.09-.05.23-.14.32-.23.23-.14.41-.27.64-.41-1.15.55-2.3,1-3.4,1.46"/>
  <path class="e" d="m32.21,17.01c3.36,3.19,9.61,5.33,17.57,5.33h.32c5.79-.05,12.42-1.23,19.45-3.92,1.1-.46,2.25-.91,3.4-1.41-2.48,3.05-5.56,5.43-8.97,7.2-5.89,3.1-12.65,4.42-18.72,4.51h-.69c-.69,0-1.43,0-2.16-.05-9.38-.41-20.51-3.51-28.33-11.67h18.12m40.74,0h0m-40.74-.05H14.14s-.05,0-.09.05v.09c3.68,3.78,8.23,6.75,13.61,8.75,4.51,1.69,9.66,2.69,14.76,2.92.74.05,1.43.05,2.16.05h.69c3.22-.05,6.39-.41,9.43-1.14,3.36-.78,6.48-1.92,9.29-3.37,3.59-1.92,6.62-4.33,8.97-7.25v-.14h-.09c-1.1.5-2.25,1-3.4,1.41-6.53,2.51-13.24,3.88-19.41,3.92h-.32c-7.59,0-13.93-1.96-17.47-5.33t-.05.05"/>
</svg>